<svg width="43" height="36" viewBox="0 0 43 36" fill="none" xmlns="http://www.w3.org/2000/svg">
<path fill-rule="evenodd" clip-rule="evenodd" d="M17.8508 0.143182C17.8253 0.221891 17.6462 0.909573 17.4528 1.67122C17.2593 2.43286 17.0501 3.10295 16.9878 3.16023C16.9255 3.21758 16.48 3.34383 15.9978 3.4407C15.5155 3.53765 14.7841 3.72355 14.3726 3.85388C13.9609 3.9843 13.5575 4.09091 13.4761 4.09091C13.3948 4.09091 12.7828 3.55885 12.1162 2.90864L10.9042 1.72636L10.4178 1.98368C10.1502 2.12523 9.59072 2.42714 9.17449 2.65459L8.4175 3.06818L8.88788 4.54091C9.14662 5.35091 9.3587 6.07565 9.35923 6.15142C9.36002 6.27709 6.78181 8.75389 6.64893 8.75504C6.61737 8.75536 5.84765 8.54894 4.93836 8.29636C4.02915 8.04379 3.27437 7.85029 3.26118 7.86633C3.15299 7.99773 1.8896 10.0878 1.8896 10.1354C1.8896 10.1693 2.4433 10.6854 3.12003 11.2822C4.01676 12.0731 4.35047 12.4191 4.35047 12.5581C4.35047 12.6631 4.23516 13.0773 4.09428 13.4787C3.95339 13.8801 3.77006 14.5276 3.68683 14.9175C3.60368 15.3074 3.48504 15.691 3.42316 15.77C3.34582 15.8688 2.79432 16.0292 1.65538 16.284L0 16.6545V18V19.3455L1.64624 19.716C2.55166 19.9197 3.34723 20.1416 3.41411 20.2091C3.48099 20.2766 3.60377 20.6602 3.68691 21.0616C3.77006 21.463 3.95339 22.1199 4.09428 22.5213C4.23516 22.9227 4.35047 23.3369 4.35047 23.4419C4.35047 23.5809 4.01676 23.9269 3.12003 24.7178C2.4433 25.3146 1.8896 25.8307 1.8896 25.8646C1.8896 25.9127 3.15563 28.0065 3.26224 28.1347C3.27595 28.1512 4.01272 27.9579 4.89933 27.7051C5.78604 27.4523 6.5548 27.2455 6.60762 27.2455C6.758 27.2455 9.36011 29.6879 9.36011 29.829C9.36011 29.8982 9.14381 30.6227 8.87944 31.439C8.61516 32.2554 8.40748 32.9283 8.41803 32.9344C9.17985 33.374 10.8201 34.2008 10.8954 34.1833C10.9527 34.17 11.4832 33.6805 12.0743 33.0955C12.6654 32.5105 13.2262 31.9984 13.3206 31.9577C13.4423 31.9051 13.7539 31.9583 14.3928 32.141C14.8881 32.2825 15.6407 32.4691 16.0654 32.5554C16.49 32.6418 16.8925 32.755 16.9599 32.8071C17.0272 32.8592 17.2256 33.4608 17.4007 34.144C17.5757 34.8273 17.7579 35.5245 17.8055 35.6932L17.892 36H18.8115H19.7309V32.4907V28.9813L18.8301 28.9241C17.0317 28.8099 15.5024 28.4387 14.0721 27.7691C10.7211 26.2002 8.37127 23.2419 7.72424 19.7774C7.61719 19.2042 7.59364 18.6883 7.62624 17.6318C7.66333 16.4288 7.70482 16.1138 7.93368 15.3C8.46637 13.4048 9.43657 11.8015 10.9002 10.3973C13.0234 8.36035 15.6576 7.24205 18.7435 7.06762L19.7309 7.01174V3.50591V0H18.814C18.017 0 17.8911 0.0187364 17.8508 0.143182ZM31.1564 0.661173C30.2998 1.02215 29.8872 1.61845 29.8872 2.49545C29.8872 3.16882 30.0839 3.58846 30.5955 4.00664C31.0437 4.37302 31.4096 4.5 32.0167 4.5C33.4136 4.5 34.4652 3.28958 34.1457 2.04963C33.8319 0.831927 32.3665 0.151282 31.1564 0.661173ZM20.6977 2.49545V3.02727H24.7845H28.8713V2.49545V1.96364H24.7845H20.6977V2.49545ZM37.4686 6.7383C36.1402 7.08128 35.4729 8.45885 36.0879 9.5886C36.8182 10.93 38.833 11.0905 39.7734 9.88192C40.9692 8.34521 39.4213 6.23405 37.4686 6.7383ZM18.3687 7.99364C13.8517 8.37564 10.0659 11.3791 8.85 15.5455C8.64065 16.2628 8.62316 16.4522 8.62316 18C8.62316 19.5478 8.64065 19.7372 8.85 20.4545C9.95045 24.2251 13.1334 27.0532 17.1382 27.8186C20.5928 28.4789 24.0891 27.5515 26.6984 25.283C31.4835 21.123 31.1484 13.9618 25.9896 10.1335C23.869 8.55974 21.0463 7.76716 18.3687 7.99364ZM24.6527 8.21168C24.6527 8.22813 24.9659 8.41099 25.3488 8.61807C25.7317 8.82524 26.0702 9.03265 26.1011 9.07912C26.1384 9.13541 27.6156 9.16364 30.5244 9.16364H34.8917V8.67273V8.18182H29.7722C26.9564 8.18182 24.6527 8.19524 24.6527 8.21168ZM21.2424 10.9543C25.2849 11.9348 27.7844 15.6587 26.9442 19.449C26.3263 22.2361 24.0409 24.4019 20.9933 25.0885C20.0958 25.2907 18.4877 25.2728 17.5073 25.0498C14.5536 24.3779 12.3066 22.215 11.672 19.4332C11.5048 18.7003 11.5632 16.7937 11.7748 16.0773C12.0014 15.3099 12.6459 14.1466 13.2115 13.484C14.4199 12.0683 16.0118 11.1878 18.0032 10.8336C18.8409 10.6846 20.3644 10.7413 21.2424 10.9543ZM18.3666 11.6937C14.9415 12.2037 12.5241 14.8129 12.5241 18C12.5241 20.9221 14.5215 23.3445 17.596 24.151C18.4606 24.3777 19.9962 24.3961 20.9015 24.1904C22.7845 23.7627 24.4584 22.5412 25.3487 20.9455C25.9463 19.874 26.1016 19.2668 26.1016 18C26.1016 17.0714 26.0689 16.7983 25.8964 16.2853C25.4646 15.0012 24.7054 13.909 23.7014 13.1274C23.0152 12.5932 21.7728 12.0035 20.9614 11.827C20.2533 11.6729 18.9543 11.6062 18.3666 11.6937ZM41.0879 13.6693C40.3027 13.9766 39.9784 14.8549 40.3951 15.5451C40.8776 16.3445 42.105 16.4185 42.7063 15.6845C43.3747 14.8687 42.8121 13.6845 41.7213 13.6111C41.4937 13.5958 41.2086 13.622 41.0879 13.6693ZM30.4533 14.4488C30.4533 14.4756 30.5154 14.6965 30.5914 14.9397L30.7294 15.3818H34.9858H39.2421V14.8909V14.4H34.8477C32.4308 14.4 30.4533 14.4219 30.4533 14.4488ZM40.9052 19.9861C40.4496 20.2718 40.2089 20.6601 40.2089 21.1091C40.2089 22.0881 41.3682 22.7213 42.2743 22.2372C42.7414 21.9876 43.0476 21.447 42.9939 20.9664C42.9494 20.5676 42.6119 20.1064 42.2302 19.9226C41.8467 19.7381 41.2553 19.7664 40.9052 19.9861ZM30.6012 21.0549C30.5198 21.2951 30.4533 21.5161 30.4533 21.5458C30.4533 21.5756 32.4308 21.6 34.8477 21.6H39.2421V21.1091V20.6182H34.9956H30.749L30.6012 21.0549ZM37.0597 25.4948C35.6989 26.1261 35.4468 27.8779 36.5831 28.8066C37.0273 29.1697 37.3919 29.2912 38.0309 29.2891C38.7372 29.2868 39.1891 29.0969 39.6513 28.6081C40.8871 27.301 39.8927 25.2906 38.007 25.2836C37.6545 25.2823 37.3913 25.341 37.0597 25.4948ZM26.1011 26.9209C26.0702 26.9674 25.7239 27.179 25.3313 27.3913L24.6176 27.7773L27.1839 27.799C28.5953 27.8109 30.9007 27.8109 32.3067 27.799L34.8632 27.7773L34.8775 27.3068L34.8918 26.8364H30.5245C27.6156 26.8364 26.1384 26.8646 26.1011 26.9209ZM31.0879 31.6779C30.235 32.0629 29.7221 33.0204 29.9123 33.8727C30.3689 35.9178 33.401 36.0791 34.1086 34.096C34.4521 33.1333 33.8879 32.0133 32.8575 31.6125C32.4218 31.4431 31.5357 31.4758 31.0879 31.6779ZM20.6977 33.5045V34.0364H24.7845H28.8713V33.5045V32.9727H24.7845H20.6977V33.5045Z" fill="#7F56D9"/>
</svg>
