<svg width="151" height="36" viewBox="0 0 151 36" fill="none" xmlns="http://www.w3.org/2000/svg">
<g clip-path="url(#clip0_404_18289)">
<path d="M38.8276 26.8086V2.99609H52.8406V5.99186H41.7335V13.3084H51.7127V16.3042H41.7335V23.7744H53.6244V26.7702H38.8276V26.8086Z" fill="white"/>
<path d="M68.3441 26.808L63.5265 20.4708L58.709 26.808H55.3061L61.8824 18.3392L54.9429 9.60156H58.7663L63.5074 16.15L68.325 9.60156H72.072L65.4956 18.3392L71.7279 26.808H68.3441Z" fill="white"/>
<path d="M76.4112 24.2545V35.988H73.5054V18.4166C73.5054 13.9422 76.9082 9.17969 82.2037 9.17969C87.5757 9.17969 91.6286 12.5979 91.6286 18.2054C91.6286 23.6784 87.5183 27.4423 82.8537 27.4423C80.5979 27.4423 77.5391 26.463 76.4112 24.2545ZM88.5889 18.2054C88.5889 14.3647 86.1037 12.0986 81.7258 12.3099C79.6038 12.3867 76.3538 13.9422 76.6215 19.4152C76.698 21.2012 78.5332 24.5426 82.567 24.5426C86.0463 24.5426 88.5889 22.5454 88.5889 18.2054Z" fill="white"/>
<path d="M94.1147 26.8086V9.60217H97.0206V11.4457C98.4353 9.81341 100.634 9.2373 102.966 9.2373V12.3675C102.603 12.2907 99.1426 11.8682 97.0206 16.4195V26.8662H94.1147V26.8086Z" fill="white"/>
<path d="M103.75 18.2054C103.75 13.2317 107.286 9.17969 112.18 9.17969C118.26 9.17969 120.534 13.2317 120.534 18.4166V19.8377H106.942C107.152 23.1023 110.058 24.8114 112.754 24.7538C114.742 24.677 116.08 24.1201 117.495 22.699L119.407 24.6962C117.629 26.4053 115.373 27.5384 112.62 27.5384C107.42 27.4423 103.75 23.6016 103.75 18.2054ZM111.951 12.0986C109.198 12.0986 107.057 14.5183 106.923 17.1492H117.476C117.476 14.5759 115.64 12.0986 111.951 12.0986Z" fill="white"/>
<path d="M122.007 24.3897L124.129 22.4694C124.053 22.4694 125.2 23.6024 125.334 23.6792C125.831 24.1017 126.328 24.3897 126.959 24.5242C128.794 25.0235 132.12 24.889 132.407 22.3157C132.541 20.8947 131.489 20.1073 130.285 19.608C128.737 19.0319 127.035 18.8207 125.468 18.1101C123.69 17.3228 122.562 15.9785 122.562 13.9814C122.562 8.79639 129.922 7.93223 133.248 10.3519C133.382 10.4863 135.026 11.9842 134.95 11.9842L132.828 13.6933C131.757 12.4067 130.782 11.7729 128.507 11.7729C127.379 11.7729 125.812 12.2722 125.525 13.4821C125.104 15.1912 127.016 15.8249 128.278 16.1898C129.979 16.6123 131.814 16.9003 133.306 17.8221C135.351 19.1087 135.848 21.8741 135.084 24.0057C134.242 26.3485 131.681 27.2703 129.425 27.3471C126.748 27.5199 124.416 26.675 122.504 24.7546C122.351 24.7546 122.007 24.3897 122.007 24.3897Z" fill="white"/>
<path d="M136.939 24.3888L139.061 22.4684C138.985 22.4684 140.132 23.6014 140.265 23.6782C140.762 24.1007 141.259 24.3888 141.89 24.5232C143.726 25.0225 147.052 24.8881 147.339 22.3148C147.473 20.8937 146.421 20.1064 145.217 19.6071C143.668 19.0309 141.967 18.8197 140.399 18.1092C138.621 17.3218 137.493 15.9776 137.493 13.9804C137.493 8.79541 144.854 7.93125 148.18 10.3509C148.314 10.4853 149.958 11.9832 149.881 11.9832L147.759 13.6923C146.689 12.4057 145.714 11.772 143.439 11.772C142.311 11.772 140.743 12.2713 140.457 13.4811C140.036 15.1902 141.948 15.8239 143.209 16.1888C144.911 16.6113 146.746 16.8993 148.237 17.8211C150.283 19.1078 150.78 21.8731 150.015 24.0047C149.174 26.3475 146.612 27.2693 144.356 27.3461C141.661 27.4805 139.329 26.6356 137.417 24.7152C137.302 24.7536 136.939 24.3888 136.939 24.3888Z" fill="white"/>
<path d="M19.1364 26.8073L17.0144 21.123H5.54399L3.42198 26.8073H0.382324L9.57774 2.97559H12.9042L22.0422 26.8073H19.1364ZM11.1454 6.39383L6.82485 18.2041H15.81L11.1454 6.39383Z" fill="white"/>
<path d="M23.9526 26.8076V2.99512H26.9349V26.8268H23.9526V26.8076Z" fill="white"/>
<path d="M31.3901 26.8081V9.94727H34.3724V26.8081H31.3901Z" fill="white"/>
<path d="M37.2025 4.4738C37.2025 4.39698 37.2025 4.39698 37.2025 4.33937C37.2025 4.26256 37.2025 4.26256 37.2025 4.20495C34.9467 4.12813 33.0923 2.28458 33.0349 0.0185547C32.9585 0.0185547 32.9011 0.0185547 32.8246 0.0185547C32.7482 0.0185547 32.6908 0.0185547 32.6143 0.0185547C32.5379 2.28458 30.7026 4.14734 28.4468 4.20495C28.4468 4.28176 28.4468 4.28176 28.4468 4.33937C28.4468 4.41619 28.4468 4.41618 28.4468 4.4738C30.7026 4.55061 32.557 6.39416 32.6143 8.66019C32.6908 8.66019 32.7482 8.66019 32.8246 8.66019C32.9011 8.66019 32.9585 8.66019 33.0349 8.66019C33.0923 6.39416 34.9275 4.55061 37.2025 4.4738Z" fill="white"/>
</g>
<defs>
<clipPath id="clip0_404_18289">
<rect width="150" height="36" fill="white" transform="translate(0.380371)"/>
</clipPath>
</defs>
</svg>
