<svg width="107" height="32" viewBox="0 0 107 32" fill="none" xmlns="http://www.w3.org/2000/svg">
<g clip-path="url(#clip0_404_18280)">
<path fill-rule="evenodd" clip-rule="evenodd" d="M66.0241 25.0246C59.8461 29.573 50.8915 31.9997 43.1818 31.9997C32.3715 31.9997 22.6394 28.006 15.2767 21.3638C14.6982 20.8415 15.2165 20.1297 15.9107 20.5364C23.8565 25.1541 33.6811 27.9321 43.8297 27.9321C50.674 27.9321 58.2033 26.5176 65.1264 23.5825C66.1722 23.1388 67.0469 24.2666 66.0241 25.0246Z" fill="white"/>
<path fill-rule="evenodd" clip-rule="evenodd" d="M68.5925 22.09C67.8057 21.0824 63.3724 21.6139 61.3825 21.8497C60.7763 21.9236 60.6837 21.3967 61.2298 21.0177C64.7607 18.5355 70.5546 19.2519 71.2302 20.084C71.9059 20.9206 71.0544 26.7215 67.7363 29.4903C67.2273 29.9155 66.7414 29.689 66.9681 29.1251C67.7132 27.267 69.3838 23.1023 68.5925 22.09Z" fill="white"/>
<path fill-rule="evenodd" clip-rule="evenodd" d="M61.5198 3.49464V1.08182C61.5198 0.71666 61.7974 0.47168 62.1306 0.47168H72.9456C73.2927 0.47168 73.5703 0.721283 73.5703 1.08182V3.14797C73.5657 3.49464 73.2742 3.94763 72.7558 4.66408L67.1517 12.656C69.2342 12.6051 71.4323 12.9148 73.3204 13.978C73.7462 14.2183 73.8619 14.5696 73.8943 14.9163V17.4909C73.8943 17.8422 73.5055 18.2536 73.0983 18.0409C69.771 16.2983 65.3515 16.1088 61.6725 18.0594C61.2976 18.2628 60.9043 17.856 60.9043 17.5047V15.0596C60.9043 14.6667 60.9089 13.9964 61.3023 13.4002L67.7949 4.10016H62.1445C61.7974 4.10016 61.5198 3.85518 61.5198 3.49464Z" fill="white"/>
<path fill-rule="evenodd" clip-rule="evenodd" d="M22.0694 18.5495H18.7791C18.4644 18.5264 18.2145 18.2907 18.1914 17.9902V1.12354C18.1914 0.786119 18.4737 0.518025 18.8254 0.518025H21.8936C22.2129 0.531883 22.4674 0.776871 22.4905 1.08194V3.28677H22.5507C23.3513 1.1559 24.8553 0.162109 26.8822 0.162109C28.9416 0.162109 30.2281 1.1559 31.1536 3.28677C31.9496 1.1559 33.759 0.162109 35.698 0.162109C37.0771 0.162109 38.5857 0.730649 39.5066 2.0064C40.5479 3.42543 40.335 5.48696 40.335 7.29427L40.3304 17.9394C40.3304 18.2768 40.0481 18.5495 39.6964 18.5495H36.4107C36.0821 18.5264 35.8183 18.2629 35.8183 17.9394V8.99989C35.8183 8.28806 35.8831 6.51311 35.7258 5.83826C35.4805 4.7058 34.7447 4.38686 33.7914 4.38686C32.9954 4.38686 32.1625 4.91842 31.8246 5.76892C31.4868 6.61942 31.5192 8.04308 31.5192 8.99989V17.9394C31.5192 18.2768 31.2369 18.5495 30.8852 18.5495H27.5995C27.2663 18.5264 27.0072 18.2629 27.0072 17.9394L27.0026 8.99989C27.0026 7.11863 27.3126 4.34989 24.9756 4.34989C22.6109 4.34989 22.7034 7.04929 22.7034 8.99989V17.9394C22.7034 18.2768 22.4211 18.5495 22.0694 18.5495Z" fill="white"/>
<path fill-rule="evenodd" clip-rule="evenodd" d="M82.8809 0.162109C87.7631 0.162109 90.4055 4.34989 90.4055 9.67474C90.4055 14.8193 87.4855 18.9008 82.8809 18.9008C78.0866 18.9008 75.4766 14.713 75.4766 9.49447C75.4766 4.24357 78.119 0.162109 82.8809 0.162109ZM82.9087 3.6057C80.4837 3.6057 80.331 6.906 80.331 8.96291C80.331 11.0244 80.2986 15.4248 82.8809 15.4248C85.4308 15.4248 85.5511 11.8749 85.5511 9.71172C85.5511 8.28806 85.4909 6.58707 85.0605 5.23736C84.6903 4.06331 83.9545 3.6057 82.9087 3.6057Z" fill="white"/>
<path fill-rule="evenodd" clip-rule="evenodd" d="M96.7367 18.5495H93.4602C93.1317 18.5264 92.8679 18.2629 92.8679 17.9394L92.8633 1.06807C92.891 0.758382 93.1641 0.518025 93.4973 0.518025H96.5469C96.8338 0.531883 97.0699 0.726028 97.1347 0.989497V3.56872H97.1948C98.1157 1.26221 99.4069 0.162109 101.679 0.162109C103.155 0.162109 104.595 0.693671 105.52 2.14969C106.381 3.49939 106.381 5.76892 106.381 7.40058V18.0179C106.344 18.3138 106.071 18.5495 105.747 18.5495H102.447C102.146 18.5264 101.897 18.3045 101.864 18.0179V8.8566C101.864 7.01231 102.077 4.31291 99.8048 4.31291C99.0042 4.31291 98.2684 4.84909 97.9028 5.66261C97.4401 6.69338 97.3799 7.71952 97.3799 8.8566V17.9394C97.3753 18.2768 97.0884 18.5495 96.7367 18.5495Z" fill="white"/>
<path fill-rule="evenodd" clip-rule="evenodd" d="M52.8982 10.4926C52.8982 11.7729 52.9306 12.8407 52.2827 13.9777C51.7598 14.9022 50.9268 15.4707 50.0059 15.4707C48.7425 15.4707 48.0021 14.5093 48.0021 13.0903C48.0021 10.2892 50.5149 9.78072 52.8982 9.78072V10.4926ZM56.2162 18.5029C55.9987 18.6971 55.684 18.7109 55.4388 18.5815C54.3466 17.6756 54.1477 17.2549 53.5507 16.3906C51.7459 18.2302 50.464 18.7803 48.127 18.7803C45.355 18.7803 43.2031 17.0747 43.2031 13.6588C43.2031 10.9918 44.647 9.17521 46.7109 8.28773C48.4972 7.50194 50.9916 7.36328 52.8982 7.14603V6.72078C52.8982 5.93962 52.9583 5.01516 52.4956 4.34031C52.0976 3.73479 51.3294 3.48519 50.6491 3.48519C49.395 3.48519 48.2797 4.12769 48.0067 5.4589C47.9512 5.75473 47.7337 6.04593 47.4328 6.0598L44.2444 5.71775C43.9759 5.65766 43.6752 5.44041 43.7538 5.02903C44.485 1.16482 47.9835 0 51.1119 0C52.7131 0 54.8048 0.42525 56.0681 1.63628C57.6693 3.12928 57.5166 5.12148 57.5166 7.28932V12.4108C57.5166 13.95 58.1552 14.6249 58.7568 15.4569C58.9651 15.7527 59.0114 16.1086 58.7429 16.3305C58.0719 16.8898 56.878 17.9298 56.2208 18.5122L56.2162 18.5029Z" fill="white"/>
<path fill-rule="evenodd" clip-rule="evenodd" d="M9.7634 10.4926C9.7634 11.7729 9.79579 12.8407 9.14792 13.9777C8.62499 14.9022 7.79663 15.4707 6.87109 15.4707C5.60772 15.4707 4.87192 14.5093 4.87192 13.0903C4.87192 10.2892 7.38476 9.78072 9.7634 9.78072V10.4926ZM13.0815 18.5029C12.864 18.6971 12.5493 18.7109 12.304 18.5815C11.2119 17.6756 11.0175 17.2549 10.4159 16.3906C8.6111 18.2302 7.33386 18.7803 4.99224 18.7803C2.22487 18.7803 0.0683594 17.0747 0.0683594 13.6588C0.0683594 10.9918 1.51683 9.17521 3.57616 8.28773C5.36245 7.50194 7.85679 7.36328 9.7634 7.14603V6.72078C9.7634 5.93962 9.82356 5.01516 9.36542 4.34031C8.96281 3.73479 8.19461 3.48519 7.51896 3.48519C6.26486 3.48519 5.14495 4.12769 4.87192 5.4589C4.81638 5.75473 4.59888 6.04593 4.30271 6.0598L1.10959 5.71775C0.841186 5.65766 0.545012 5.44041 0.619056 5.02903C1.35486 1.16482 4.84878 0 7.97711 0C9.57829 0 11.67 0.42525 12.9334 1.63628C14.5346 3.12928 14.3819 5.12148 14.3819 7.28932V12.4108C14.3819 13.95 15.0205 14.6249 15.6221 15.4569C15.835 15.7527 15.8812 16.1086 15.6128 16.3305C14.9418 16.8898 13.7479 17.9298 13.0907 18.5122L13.0815 18.5029Z" fill="white"/>
</g>
<defs>
<clipPath id="clip0_404_18280">
<rect width="106.312" height="32" fill="white" transform="translate(0.0683594)"/>
</clipPath>
</defs>
</svg>
