<svg width="33" height="40" viewBox="0 0 33 40" fill="none" xmlns="http://www.w3.org/2000/svg">
<g clip-path="url(#clip0_404_18310)">
<path d="M31.8965 13.6471C29.2312 15.2941 27.5849 18.1176 27.5849 21.2549C27.5849 24.7843 29.7015 28 32.9157 29.3333C32.2885 31.3726 31.3478 33.2549 30.1719 34.9804C28.4472 37.4118 26.6442 39.9216 23.9788 39.9216C21.3134 39.9216 20.5295 38.3529 17.3937 38.3529C14.3364 38.3529 13.2389 40 10.7303 40C8.22168 40 6.49702 37.7255 4.53718 34.902C1.9502 30.9804 0.460718 26.4314 0.382324 21.6471C0.382324 13.8824 5.39951 9.72549 10.4167 9.72549C13.0821 9.72549 15.2771 11.451 16.9234 11.451C18.4912 11.451 20.9998 9.64706 23.9788 9.64706C27.1145 9.56863 30.0935 11.0588 31.8965 13.6471ZM22.5677 6.35294C23.9004 4.78431 24.6059 2.82353 24.6843 0.784314C24.6843 0.54902 24.6843 0.235294 24.6059 0C22.3325 0.235294 20.2159 1.33333 18.7264 3.05882C17.3937 4.54902 16.6098 6.43137 16.5314 8.47059C16.5314 8.70588 16.5314 8.94118 16.6098 9.17647C16.7666 9.17647 17.0018 9.2549 17.1585 9.2549C19.2752 9.09804 21.235 8 22.5677 6.35294Z" fill="white"/>
</g>
<defs>
<clipPath id="clip0_404_18310">
<rect width="32.5333" height="40" fill="white" transform="translate(0.380371)"/>
</clipPath>
</defs>
</svg>
