<svg width="51" height="54" viewBox="0 0 51 54" fill="none" xmlns="http://www.w3.org/2000/svg">
<g clip-path="url(#clip0_383_7940)">
<mask id="mask0_383_7940" style="mask-type:luminance" maskUnits="userSpaceOnUse" x="0" y="0" width="52" height="54">
<path d="M51.0059 0H0.00585938V54H51.0059V0Z" fill="white"/>
</mask>
<g mask="url(#mask0_383_7940)">
<path d="M32.5049 31.53C32.449 25.5577 32.0401 19.6025 31.2758 13.6729C30.8579 10.4308 30.3506 7.19725 29.8568 3.96369C29.7517 3.27901 29.5439 2.62633 29.8322 1.92458C30.1674 1.10766 30.7573 0.587222 31.6333 0.418719C32.2479 0.301407 32.8892 0.267279 33.5194 0.254481C38.2078 0.162764 42.8984 0.0859781 47.5868 0.00492585C47.884 0.000659938 48.1834 -0.00360597 48.4806 0.00492585C50.1678 0.0539838 51.2539 1.20791 50.9567 2.7991C50.331 6.15637 49.6539 9.50297 48.9343 12.8432C48.4315 15.1724 47.8683 17.4909 47.2538 19.7945C46.5722 22.3562 45.8459 24.9093 45.0571 27.4454C44.2705 29.9793 43.4347 32.5026 42.5297 35.0024C40.6436 40.2111 38.4246 45.2875 35.6357 50.123C34.9831 51.2534 34.2546 52.3476 33.4814 53.4056C33.0837 53.9495 32.4155 54.1372 31.7272 53.8961C31.0791 53.6701 30.811 53.1368 30.7551 52.5161C30.7261 52.1834 30.7395 51.84 30.7909 51.5072C31.2445 48.5382 31.7942 45.5819 32.1451 42.6022C32.3976 40.4713 32.4222 38.3128 32.4915 36.1649C32.5429 34.6206 32.5004 33.0742 32.5004 31.5279L32.5049 31.53Z" fill="black"/>
<path d="M8.69578 0.209261C12.0747 0.138874 15.3507 0.0578215 18.6268 0.00449769C20.5821 -0.0274966 21.6548 1.24161 21.2838 3.07169C20.6827 6.05356 20.1888 9.05889 19.4782 12.0173C18.3921 16.552 17.201 21.0632 15.9809 25.5658C14.7876 29.9682 13.2278 34.2661 11.5406 38.5171C10.2087 41.8723 8.72707 45.1698 6.97284 48.3436C6.1393 49.8495 5.24096 51.3234 4.34932 52.7994C4.17725 53.0831 3.91579 53.3305 3.65657 53.5544C3.18058 53.9661 2.61073 54.1261 2.00513 53.8637C1.40847 53.6056 1.08221 53.0852 1.10455 52.4944C1.13584 51.6838 1.29897 50.8776 1.42858 50.0735C1.66993 48.5633 1.96044 47.0617 2.17497 45.5495C2.84314 40.8186 2.99733 36.0578 2.91465 31.2949C2.86325 28.3131 2.73588 25.3227 2.45654 22.3536C2.0029 17.5438 1.41741 12.7425 0.84086 7.94335C0.650912 6.3543 0.326883 4.78231 0.0475474 3.20819C-0.209442 1.75779 0.742534 0.495077 2.32916 0.373499C3.90462 0.254053 5.48901 0.254053 7.06893 0.211394C7.64548 0.196464 8.22426 0.209261 8.69578 0.209261Z" fill="black"/>
</g>
</g>
<defs>
<clipPath id="clip0_383_7940">
<rect width="51" height="54" fill="white" transform="translate(0.00585938)"/>
</clipPath>
</defs>
</svg>
