<svg width="81" height="32" viewBox="0 0 81 32" fill="none" xmlns="http://www.w3.org/2000/svg">
<g clip-path="url(#clip0_404_18305)">
<path d="M10.7454 6.99609C5.10657 6.99609 0.407715 9.38194 0.407715 16.5799C0.407715 22.2823 3.56736 25.8733 10.891 25.8733C19.5114 25.8733 20.0639 20.2102 20.0639 20.2102H15.887C15.887 20.2102 14.9914 23.2596 10.6362 23.2596C7.08905 23.2596 4.53778 20.8698 4.53778 17.5202H20.5007V15.4182C20.5007 12.1044 18.3914 6.99609 10.7454 6.99609ZM10.5998 9.68247C13.9764 9.68247 16.2783 11.7454 16.2783 14.8374H4.63016C4.63016 11.5549 7.63475 9.68247 10.5998 9.68247Z" fill="white"/>
<path d="M20.498 0.0263672V22.2589C20.498 23.5208 20.4077 25.2928 20.4077 25.2928H24.3916C24.3916 25.2928 24.5346 24.0202 24.5346 22.8571C24.5346 22.8571 26.503 25.9281 31.855 25.9281C37.4908 25.9281 41.3191 22.0258 41.3191 16.435C41.3191 11.234 37.8027 7.05088 31.8641 7.05088C26.3029 7.05088 24.5749 10.0458 24.5749 10.0458V0.0263672H20.498ZM30.8357 9.80078C34.6629 9.80078 37.0966 12.6336 37.0966 16.435C37.0966 20.5114 34.2858 23.1782 30.863 23.1782C26.7783 23.1782 24.5749 19.9974 24.5749 16.4713C24.5749 13.1857 26.5521 9.80078 30.8357 9.80078Z" fill="white"/>
<path d="M51.22 6.99609C42.7368 6.99609 42.1927 11.6286 42.1927 12.3688H46.4152C46.4152 12.3688 46.6366 9.66432 50.9288 9.66432C53.718 9.66432 55.8793 10.9375 55.8793 13.3853V14.2566H50.9288C44.3568 14.2566 40.8823 16.174 40.8823 20.0649C40.8823 23.8942 44.0926 25.9777 48.4309 25.9777C54.3433 25.9777 56.2479 22.7196 56.2479 22.7196C56.2479 24.0155 56.348 25.2925 56.348 25.2925H60.1017C60.1017 25.2925 59.9561 23.7096 59.9561 22.6969V13.9435C59.9561 8.20397 55.3141 6.99609 51.22 6.99609ZM55.8793 16.8703V18.032C55.8793 19.5472 54.9418 23.314 49.4228 23.314C46.4006 23.314 45.1048 21.8098 45.1048 20.0649C45.1048 16.8908 49.4684 16.8703 55.8793 16.8703Z" fill="white"/>
<path d="M57.6831 7.72363H62.4334L69.2506 21.3448L76.0523 7.72363H80.3554L67.9662 31.9736H63.4526L67.0276 25.2136L57.6831 7.72363Z" fill="white"/>
</g>
<defs>
<clipPath id="clip0_404_18305">
<rect width="80" height="32" fill="white" transform="translate(0.380371)"/>
</clipPath>
</defs>
</svg>
