<svg width="68" height="40" viewBox="0 0 68 40" fill="none" xmlns="http://www.w3.org/2000/svg">
<g clip-path="url(#clip0_404_18319)">
<path d="M9.88873 3.10204V14.449C9.88873 14.449 13.8973 14.449 16.0243 14.2857C17.7422 13.9592 17.9877 13.7959 18.3149 12.1633L18.9693 9.71429H20.7691L20.4419 15.0204L20.6055 20.5714H18.8057L18.3149 18.449C17.824 16.898 17.2514 16.5714 16.0243 16.4898C14.4699 16.3265 9.88873 16.3265 9.88873 16.3265V25.8776C9.88873 27.6735 10.7886 28.4898 12.9974 28.4898H19.4602C21.4236 28.4898 23.4688 28.3265 24.6959 25.3878L26.332 21.7143H27.8864C27.7227 22.449 26.9865 29.2245 26.8229 30.7755C26.8229 30.7755 21.0145 30.6122 18.5603 30.6122H7.4345H0.808105V28.9796L2.9351 28.4898C4.48944 28.1633 4.98028 27.7551 4.98028 26.5306C4.98028 26.5306 5.1439 22.3673 5.1439 15.5102C5.1439 8.65306 4.98028 4.4898 4.98028 4.4898C4.98028 3.10204 4.48944 2.77551 2.9351 2.53061L0.808105 1.95918V0.326531L7.27089 0.489796H19.542C21.9962 0.408163 26.1684 0 26.1684 0C26.1684 0 26.0048 2.61224 25.8412 8.73469H24.1232L23.4688 6.61225C22.8961 3.83674 21.9962 2.44898 20.2783 2.44898H10.625C9.88873 2.44898 9.88873 2.61224 9.88873 3.10204ZM34.7582 4.2449H36.6397V10.6939L42.9389 10.3673L42.6117 13.3061L36.4761 12.8163V24.1633C36.4761 27.3469 37.5396 28.6531 39.4212 28.6531C41.0573 28.6531 42.3663 27.7551 42.7753 26.9388L43.6752 28C42.7753 30.1224 40.1575 31.1837 37.7032 31.1837C34.6764 31.1837 32.1403 29.3878 32.1403 25.7959V12.9796H28.459V11.4286C31.5677 11.1837 33.8583 9.30612 34.7582 4.2449ZM48.011 24.0816L49.2381 27.0204C49.7289 28.2449 50.7924 29.4694 53.2466 29.4694C55.8645 29.4694 56.928 28.0816 56.928 26.3673C56.928 21.1429 46.6202 22.6939 46.6202 15.5918C46.6202 11.5918 49.8107 9.71429 53.9829 9.71429C55.8645 9.71429 58.5641 10.0408 59.9549 10.6122C59.6276 12.1633 59.464 14.1224 59.464 15.6735L57.9097 15.8367L56.8462 12.7347C56.5189 12 55.2918 11.3469 53.7375 11.3469C51.8559 11.3469 50.0562 12.0816 50.0562 14.1224C50.0562 18.8571 60.6911 17.7959 60.6911 24.898C60.6911 28.898 57.1734 31.0204 52.8376 31.0204C49.6471 31.0204 46.3748 29.7959 46.3748 29.7959C46.7021 28 46.5384 25.9592 46.3748 24C46.4566 24.0816 48.011 24.0816 48.011 24.0816ZM59.9549 38.7755C60.4457 37.0612 60.6911 34.9388 61.0183 32.9796L62.7363 32.8163L63.3908 36C63.5544 36.7347 63.9634 37.3878 65.1905 37.3878C67.1539 37.3878 69.7717 36.1633 72.3078 31.8367C71.2443 29.2245 67.972 20.8163 65.0269 14.3673C64.2906 12.6531 64.127 12.4898 63.0635 12.2449L62.2455 11.9184V10.3673L66.9085 10.5306L72.5532 10.2041V11.7551L71.1625 12.0816C70.099 12.2449 69.6081 12.8163 69.6081 13.4694C69.6081 13.6327 69.6081 13.7959 69.7717 14.1224C70.099 15.0204 72.5532 21.9592 74.353 26.5306C75.9073 23.3469 78.7706 16.0816 79.2614 14.8571C79.425 14.2041 79.5886 14.1224 79.5886 13.6327C79.5886 12.8163 79.0978 12.4082 78.0343 12.0816L76.9708 11.7551V10.2041L81.3066 10.3673L85.3151 10.2041V11.7551L84.5789 12.3265C83.0245 12.9796 82.8609 13.0612 82.2883 14.3673L75.4983 30.2041C71.4897 39.2653 67.3175 40 64.4543 40C62.5727 40 61.182 39.5102 59.9549 38.7755Z" fill="white"/>
</g>
<defs>
<clipPath id="clip0_404_18319">
<rect width="84.507" height="40" fill="white" transform="translate(0.808105)"/>
</clipPath>
</defs>
</svg>
