<svg width="41" height="41" viewBox="0 0 41 41" fill="none" xmlns="http://www.w3.org/2000/svg">
<rect x="1.46973" y="0.689941" width="39" height="39" rx="19.5" stroke="white" stroke-opacity="0.1"/>
<path d="M20.9697 17.5962C22.9385 17.5962 24.5635 19.2212 24.5635 21.1899C24.5635 23.1899 22.9385 24.7837 20.9697 24.7837C18.9697 24.7837 17.376 23.1899 17.376 21.1899C17.376 19.2212 18.9697 17.5962 20.9697 17.5962ZM20.9697 23.5337C22.251 23.5337 23.2822 22.5024 23.2822 21.1899C23.2822 19.9087 22.251 18.8774 20.9697 18.8774C19.6572 18.8774 18.626 19.9087 18.626 21.1899C18.626 22.5024 19.6885 23.5337 20.9697 23.5337ZM25.5322 17.4712C25.5322 17.9399 25.1572 18.3149 24.6885 18.3149C24.2197 18.3149 23.8447 17.9399 23.8447 17.4712C23.8447 17.0024 24.2197 16.6274 24.6885 16.6274C25.1572 16.6274 25.5322 17.0024 25.5322 17.4712ZM27.9072 18.3149C27.9697 19.4712 27.9697 22.9399 27.9072 24.0962C27.8447 25.2212 27.5947 26.1899 26.7822 27.0337C25.9697 27.8462 24.9697 28.0962 23.8447 28.1587C22.6885 28.2212 19.2197 28.2212 18.0635 28.1587C16.9385 28.0962 15.9697 27.8462 15.126 27.0337C14.3135 26.1899 14.0635 25.2212 14.001 24.0962C13.9385 22.9399 13.9385 19.4712 14.001 18.3149C14.0635 17.1899 14.3135 16.1899 15.126 15.3774C15.9697 14.5649 16.9385 14.3149 18.0635 14.2524C19.2197 14.1899 22.6885 14.1899 23.8447 14.2524C24.9697 14.3149 25.9697 14.5649 26.7822 15.3774C27.5947 16.1899 27.8447 17.1899 27.9072 18.3149ZM26.4072 25.3149C26.7822 24.4087 26.6885 22.2212 26.6885 21.1899C26.6885 20.1899 26.7822 18.0024 26.4072 17.0649C26.1572 16.4712 25.6885 15.9712 25.0947 15.7524C24.1572 15.3774 21.9697 15.4712 20.9697 15.4712C19.9385 15.4712 17.751 15.3774 16.8447 15.7524C16.2197 16.0024 15.751 16.4712 15.501 17.0649C15.126 18.0024 15.2197 20.1899 15.2197 21.1899C15.2197 22.2212 15.126 24.4087 15.501 25.3149C15.751 25.9399 16.2197 26.4087 16.8447 26.6587C17.751 27.0337 19.9385 26.9399 20.9697 26.9399C21.9697 26.9399 24.1572 27.0337 25.0947 26.6587C25.6885 26.4087 26.1885 25.9399 26.4072 25.3149Z" fill="white"/>
</svg>
