<svg width="41" height="41" viewBox="0 0 41 41" fill="none" xmlns="http://www.w3.org/2000/svg">
<rect x="1.46973" y="0.689941" width="39" height="39" rx="19.5" stroke="white" stroke-opacity="0.1"/>
<path d="M17.0947 27.1899H14.1885V17.8462H17.0947V27.1899ZM15.626 16.5962C14.7197 16.5962 13.9697 15.8149 13.9697 14.8774C13.9697 13.9712 14.7197 13.2212 15.626 13.2212C16.5635 13.2212 17.3135 13.9712 17.3135 14.8774C17.3135 15.8149 16.5635 16.5962 15.626 16.5962ZM27.9385 27.1899H25.0635V22.6587C25.0635 21.5649 25.0322 20.1899 23.5322 20.1899C22.0322 20.1899 21.8135 21.3462 21.8135 22.5649V27.1899H18.9072V17.8462H21.6885V19.1274H21.7197C22.126 18.4087 23.0635 17.6274 24.4697 17.6274C27.4072 17.6274 27.9697 19.5649 27.9697 22.0649V27.1899H27.9385Z" fill="white"/>
</svg>
