<svg width="184" height="28" viewBox="0 0 184 28" fill="none" xmlns="http://www.w3.org/2000/svg">
<g clip-path="url(#clip0_404_18313)">
<path d="M7.85385 7.58753C7.71978 7.05036 7.7533 6.51319 7.82033 6.21103C7.98793 5.3717 8.55774 4.46523 10.2001 4.46523C11.742 4.46523 12.6135 5.40528 12.6135 6.84892C12.6135 7.31894 12.6135 8.46043 12.6135 8.46043H19.1161V6.61391C19.1496 0.906475 14.0213 0 10.3342 0C5.70867 0 1.92108 1.54436 1.21719 5.80815C1.01608 6.98321 0.982564 8.02398 1.28423 9.33333C2.42386 14.6715 11.7085 16.2158 13.0492 19.6067C13.3174 20.2446 13.2168 21.0504 13.1163 21.554C12.9151 22.4269 12.3118 23.3333 10.5688 23.3333C8.92644 23.3333 7.95441 22.3933 7.95441 20.9496V18.4317H0.915527V20.446C0.915527 26.2878 5.50756 28.0336 10.4013 28.0336C15.1274 28.0336 18.982 26.4221 19.6188 22.0576C19.9205 19.8082 19.6859 18.3309 19.5853 17.7938C18.5127 12.2542 8.59126 10.6427 7.85385 7.58753ZM92.7562 7.6211C92.6556 7.11751 92.6891 6.54676 92.7226 6.27818C92.9238 5.43885 93.4601 4.53237 95.1025 4.53237C96.6108 4.53237 97.4823 5.47242 97.4823 6.88249C97.4823 7.35252 97.4823 8.494 97.4823 8.494H103.918V6.68106C103.918 1.04077 98.89 0.167866 95.2365 0.167866C90.6445 0.167866 86.8904 1.67866 86.1865 5.90887C86.019 7.05036 85.9519 8.09113 86.2536 9.40048C87.3597 14.6715 96.5437 16.2158 97.8845 19.5731C98.1191 20.211 98.0521 21.0168 97.918 21.4868C97.7169 22.3597 97.1471 23.2326 95.4041 23.2326C93.7952 23.2326 92.7897 22.2926 92.7897 20.8825V18.3645H85.8514V20.3453C85.8514 26.1199 90.3764 27.8657 95.2365 27.8657C99.8956 27.8657 103.75 26.2542 104.354 21.9568C104.655 19.7074 104.421 18.2638 104.32 17.7266C103.281 12.2878 93.4936 10.6763 92.7562 7.6211ZM152.017 21.8897L145.883 0.839329H136.196V26.7242H142.598L142.229 5.0024L148.833 26.7242H158.117V0.839329H151.682L152.017 21.8897ZM28.8699 0.839329L24.0098 26.9928H31.0486L34.7022 2.78657L38.2551 26.9928H45.2605L40.4673 0.839329H28.8699ZM68.2877 0.839329L65.0029 21.2854L61.7181 0.839329H51.0592L50.4894 26.9928H57.0255L57.1931 2.78657L61.6845 26.9928H68.2877L72.7792 2.78657L72.9467 26.9928H79.4828L78.913 0.839329H68.2877ZM128.956 0.839329H122.353V20.1775C122.353 20.5132 122.353 20.8825 122.286 21.1847C122.152 21.8225 121.616 23.0983 119.772 23.0983C117.962 23.0983 117.426 21.8561 117.292 21.1847C117.225 20.9161 117.225 20.5132 117.225 20.1775V0.839329H110.622V19.5731C110.622 20.0432 110.655 21.0504 110.689 21.2854C111.158 26.1535 114.979 27.765 119.772 27.765C124.565 27.765 128.42 26.1871 128.889 21.2854C128.923 21.0168 128.99 20.0432 128.956 19.5731V0.839329ZM174.273 12.2878V16.1151H176.955V19.9089C176.955 20.2446 176.955 20.6139 176.888 20.9161C176.787 21.6211 176.117 22.8297 174.206 22.8297C172.329 22.8297 171.659 21.6211 171.558 20.9161C171.525 20.6139 171.491 20.2446 171.491 19.9089V7.95683C171.491 7.52038 171.525 7.08393 171.625 6.71463C171.759 6.07674 172.329 4.83453 174.206 4.83453C176.217 4.83453 176.686 6.14389 176.821 6.71463C176.888 7.08393 176.888 7.72182 176.888 7.72182V9.16547H183.457V8.29257C183.457 8.29257 183.491 7.38609 183.424 6.54676C182.921 1.67866 178.865 0.134293 174.24 0.134293C169.614 0.134293 165.659 1.71223 165.089 6.58034C165.022 7.01679 164.955 7.82254 164.955 8.32614V19.3046C164.955 19.7746 164.955 20.1439 165.056 21.0168C165.491 25.7842 169.614 27.4628 174.24 27.4628C178.899 27.4628 182.988 25.7842 183.424 21.0168C183.491 20.1439 183.524 19.7746 183.524 19.3046V12.2878H174.273Z" fill="white"/>
</g>
<defs>
<clipPath id="clip0_404_18313">
<rect width="182.609" height="28" fill="white" transform="translate(0.913574)"/>
</clipPath>
</defs>
</svg>
