<svg width="144" height="40" viewBox="0 0 144 40" fill="none" xmlns="http://www.w3.org/2000/svg">
<g clip-path="url(#clip0_404_18276)">
<path fill-rule="evenodd" clip-rule="evenodd" d="M70.0193 25.4312C70.0193 25.7446 69.9674 26.1101 69.9154 26.3712C69.4478 27.7289 68.2009 28.6166 66.7462 28.6166C65.4473 28.6166 64.4602 27.8855 64.4602 26.319C64.4602 23.9169 67.0579 23.2902 70.0713 23.2902V25.4312H70.0193ZM74.6952 21.2537C74.6952 17.3372 73.0327 13.8386 67.3697 13.8386C64.4602 13.8386 62.1223 14.6741 60.8754 15.4051L61.8105 18.5905C63.2653 17.755 64.8759 17.285 66.5384 17.2328C69.4478 17.2328 69.9154 18.8516 69.9154 19.896V20.1571C63.629 20.1571 59.6804 22.3503 59.6804 26.7889C59.6804 29.5043 61.7066 32.0631 65.2395 32.0631C67.3697 32.0631 69.1881 31.2276 70.2791 29.8177H70.383C70.383 29.8177 71.1104 32.8464 75.0589 31.6976C74.8511 30.4443 74.7472 29.0866 74.7472 27.52V21.2537H74.6952ZM-21.3164 8.45996L-16.5366 28.0944C-15.7573 31.2798 -14.4065 32.4808 -10.4579 31.6976L-7.91218 21.2537C-7.28873 18.6427 -6.82114 16.8151 -6.40551 14.1519H-6.35355C-6.04183 16.8151 -5.62619 18.6427 -5.10665 21.2537L-3.54802 28.5122C-2.97652 31.0187 -1.5218 32.5853 2.37477 31.6976L8.45343 8.51218H3.51777L1.4396 18.5383C0.868099 21.4626 0.348557 23.7602 -0.0151234 26.4234C-0.378805 23.7602 -0.846394 21.567 -1.41789 18.7472L-3.54802 8.51218H-8.6915L-11.0294 18.4861C-11.6529 21.5148 -12.2764 23.9691 -12.692 26.5278H-12.7439C-13.1596 24.1258 -13.6791 21.0448 -14.2506 18.1205L-16.121 8.45996H-21.3164ZM17.4935 25.4312C17.4935 25.7446 17.4935 26.1101 17.3896 26.3712C16.922 27.7289 15.6751 28.6166 14.2204 28.6166C12.9215 28.6166 11.9344 27.8855 11.9344 26.319C11.9344 23.9169 14.5321 23.2902 17.5454 23.2902V25.4312H17.4935ZM22.2213 21.2537C22.2213 17.3372 20.5588 13.8386 14.8958 13.8386C11.9863 13.8386 9.64838 14.6741 8.40148 15.4051L9.33666 18.5905C10.7914 17.755 12.402 17.285 14.0645 17.2328C16.9739 17.2328 17.4415 18.8516 17.4415 19.896V20.1571C11.1551 20.1571 7.20653 22.3503 7.20653 26.7889C7.20653 29.5043 9.23275 32.0631 12.7656 32.0631C14.8958 32.0631 16.7142 31.2276 17.8052 29.8177H17.9091C17.9091 29.8177 18.6365 32.8464 22.585 31.6976C22.3772 30.4443 22.2733 29.0866 22.2733 27.52V21.2537H22.2213ZM29.443 26.7367V8.45996H24.7671V31.6453H29.443V26.7367ZM89.0866 8.51218V25.5879C89.0866 27.9378 89.5022 29.6088 90.4893 30.601C91.3206 31.4887 92.6714 32.0631 94.282 32.0631C95.6848 32.0631 97.0356 31.802 97.659 31.5409L97.6071 27.8333C97.1395 27.99 96.568 28.0422 95.8406 28.0422C94.2301 28.0422 93.7105 27.05 93.7105 24.909V18.4339H97.8149V13.9952H93.7105V8.45996L89.0866 8.51218ZM76.9812 14.2563V31.6976H81.813V22.7681C81.813 22.2981 81.8649 21.8803 81.9169 21.4626C82.2806 19.5827 83.6833 18.3816 85.7615 18.3816C86.333 18.3816 86.6967 18.4339 87.1643 18.4861V13.8908C86.8006 13.8386 86.4369 13.7863 86.1252 13.7863C84.3068 13.7863 82.2806 14.9352 81.3973 17.4939H81.2934V14.2041L76.9812 14.2563ZM32.1966 14.2563V31.6976H36.8725V21.4626C36.8725 20.9926 36.9244 20.4704 37.0803 20.0527C37.444 19.0083 38.4311 17.8072 39.9378 17.8072C41.8601 17.8072 42.7433 19.426 42.7433 21.7237V31.6453H47.4711V21.3059C47.4711 20.8359 47.5231 20.2615 47.679 19.896C48.0426 18.6427 49.2376 17.755 50.5365 17.755C52.4588 17.755 53.3939 19.3216 53.3939 22.0892V31.6453H58.1218V21.4104C58.1218 16.0318 55.3682 13.8386 52.3029 13.8386C50.9001 13.8386 49.8611 14.2041 48.8739 14.7785C48.0426 15.3007 47.3153 16.0318 46.6918 16.9717H46.6399C45.8606 15.0396 43.9383 13.7863 41.8601 13.8386C39.7819 13.7341 37.8076 14.7785 36.8205 16.6062H36.7686V14.2563H32.1966Z" fill="white"/>
<path fill-rule="evenodd" clip-rule="evenodd" d="M123.117 13.4726C124.053 13.4726 124.832 12.9504 124.936 12.376L125.819 1.8799C125.819 0.835509 124.624 0 123.117 0C121.611 0 120.416 0.835509 120.416 1.8799L121.351 12.376C121.403 13.0026 122.182 13.4726 123.117 13.4726ZM117.454 16.7624C117.922 15.9269 117.87 15.0392 117.402 14.6214L108.83 8.61619C107.947 8.09399 106.596 8.72063 105.868 10.0261C105.089 11.3316 105.245 12.846 106.128 13.3159L115.636 17.7546C116.207 17.9634 117.039 17.5457 117.454 16.7624ZM128.728 16.7102C129.196 17.5457 129.975 17.9634 130.599 17.7024L140.054 13.2637C140.938 12.7415 141.094 11.2794 140.314 9.97389C139.535 8.66841 138.236 8.04177 137.353 8.56397L128.78 14.6214C128.313 15.0392 128.261 15.9269 128.728 16.7102ZM123.117 26.5274C124.053 26.5274 124.832 27.0496 124.936 27.624L125.819 38.1201C125.819 39.1645 124.624 40 123.117 40C121.611 40 120.416 39.1645 120.416 38.1201L121.351 27.624C121.403 26.9974 122.182 26.5274 123.117 26.5274ZM128.728 23.2898C129.196 22.4543 129.975 22.0366 130.599 22.2454L140.054 26.6841C140.938 27.2063 141.094 28.6684 140.314 29.9739C139.535 31.2794 138.236 31.906 137.353 31.3838L128.78 25.3786C128.313 25.0131 128.261 24.0731 128.728 23.2898ZM117.454 23.2898C117.922 24.0731 117.87 25.0131 117.402 25.4308L108.83 31.436C107.947 31.9582 106.596 31.3316 105.868 30.0261C105.089 28.7206 105.245 27.2585 106.128 26.7363L115.636 22.2976C116.207 22.0366 117.039 22.4543 117.454 23.2898ZM142.081 30.4961H142.185C142.288 30.4961 142.392 30.4439 142.392 30.3916C142.392 30.2872 142.34 30.2872 142.237 30.2872H142.133V30.4961H142.081ZM142.081 30.9661H141.873V30.1305H142.185C142.34 30.1305 142.392 30.1305 142.496 30.1828C142.548 30.235 142.6 30.2872 142.6 30.3394C142.6 30.4439 142.548 30.4961 142.444 30.5483C142.548 30.6005 142.6 30.6527 142.6 30.7572C142.6 30.9138 142.652 30.9138 142.652 30.9661H142.444C142.392 30.9138 142.392 30.8616 142.392 30.7572C142.392 30.6527 142.34 30.6527 142.237 30.6527H142.133L142.081 30.9661ZM142.185 29.8695C141.821 29.8695 141.561 30.1828 141.561 30.5483C141.561 30.9138 141.821 31.2272 142.185 31.2272C142.548 31.2272 142.808 30.9138 142.808 30.5483C142.86 30.1828 142.548 29.8695 142.185 29.8695ZM142.185 29.7128C142.652 29.7128 143.016 30.0783 143.016 30.5483C143.016 31.0183 142.652 31.3838 142.185 31.3838C141.717 31.3838 141.301 31.0183 141.301 30.5483C141.353 30.0783 141.717 29.7128 142.185 29.7128Z" fill="white"/>
</g>
<defs>
<clipPath id="clip0_404_18276">
<rect width="164.384" height="40" fill="white" transform="translate(-21.3154)"/>
</clipPath>
</defs>
</svg>
