<svg width="41" height="41" viewBox="0 0 41 41" fill="none" xmlns="http://www.w3.org/2000/svg">
<rect x="1.46973" y="0.689941" width="39" height="39" rx="19.5" stroke="white" stroke-opacity="0.1"/>
<path d="M20.9697 13.4399C25.2197 13.4399 28.7197 16.9399 28.7197 21.1899C28.7197 25.4712 25.2197 28.9399 20.9697 28.9399C16.6885 28.9399 13.2197 25.4712 13.2197 21.1899C13.2197 16.9399 16.6885 13.4399 20.9697 13.4399ZM26.0635 17.0337C25.9385 17.2212 24.8447 18.6274 22.376 19.6274C22.626 20.1274 22.7822 20.5024 22.9697 20.9399C25.1572 20.6587 27.3447 21.0962 27.5635 21.1587C27.5635 19.5962 27.001 18.1587 26.0635 17.0337ZM25.3447 16.2524C23.7197 14.8149 21.501 14.2837 19.4072 14.7837C19.5947 15.0337 20.7822 16.6587 21.876 18.6587C24.2197 17.7837 25.2197 16.4399 25.3447 16.2524ZM18.126 15.2212C16.2822 16.0962 14.9072 17.8149 14.4697 19.8462C14.7822 19.8774 17.501 19.8774 20.5947 19.0649C19.501 17.0962 18.3135 15.4712 18.126 15.2212ZM14.3447 21.2212C14.3447 22.9087 14.9697 24.4712 16.0322 25.6274C17.0947 23.8149 19.2822 21.8774 21.6885 21.1899C21.501 20.8149 21.3447 20.4399 21.126 20.0649C17.8447 21.0649 14.626 21.0337 14.3447 21.0024C14.3447 21.0962 14.3447 21.1587 14.3447 21.2212ZM16.876 26.4399C18.8447 27.9712 21.4072 28.2212 23.5322 27.3149C23.4385 26.7212 23.0635 24.6899 22.126 22.2837C19.4697 23.1899 17.5947 25.0337 16.876 26.4399ZM24.6572 26.6899C26.126 25.6899 27.1885 24.0962 27.501 22.2524C27.251 22.1899 25.4385 21.6587 23.376 21.9712C24.2197 24.3774 24.5947 26.3149 24.6572 26.6899Z" fill="white"/>
</svg>
